EMG
version=1
nRows=31
nColumns=17
inDegrees=no
endheader
time	EMG01_right_gast_med	EMG02_right_glut_max	EMG03_left_gast_med	EMG04_left_glut_max	EMG05_right_glut_med	EMG06_right_bic_fem	EMG07_right_rect_fem	EMG08_right_vast_lat	EMG09_right_vast_med	EMG10_right_tens_fasc_lat	EMG11_left_glut_med	EMG12_left_bic_fem	EMG13_left_rect_fem	EMG14_left_vast_lat	EMG15_left_vast_med	EMG16_left_tens_fasc_lat
      0.75000000	    -24.32358360	   -159.84960938	      6.12834215	   -201.72976685	     83.59852600	     10.99721813	      5.82375288	    -30.75008392	      5.39690924	     28.01687050	    -14.74989128	     -3.01604128	     32.35053253	    -14.50715256	    -23.76585770	    313.82373047
      0.76000000	    -16.59302711	     -1.26222849	    -73.01453400	   -113.50529480	      2.39273834	     12.17031670	     -5.69368744	    -46.65912628	      8.09502125	     45.15679169	     21.92241669	      3.82598495	     34.11713791	     10.15661621	     83.93613434	     24.05954552
      0.77000000	      4.61277533	     80.22196198	    -11.38254929	      1.04822087	   -199.92909241	     13.40905666	      3.08589697	    -53.78434372	     11.25568676	    -51.76763916	     -9.70647049	     -6.38320065	     -4.23708820	    -13.24741554	     22.51264572	   -218.70193481
      0.78000000	     27.86689377	     99.64995575	     19.28841209	     81.76152039	   -201.81442261	      3.75960159	      4.12583113	    -49.12843704	     13.04205608	   -150.28852844	    -24.74076462	     -6.84839058	      2.34993553	      8.03735542	    -19.33765984	   -342.59304810
      0.79000000	     48.53974533	    137.90222168	    -64.32029724	    154.68833923	    -54.51228333	      4.16685772	     -3.38557076	    -37.02002716	     17.59027481	    -33.06366730	     17.63230705	     -6.05021477	      4.79279423	      4.74168301	    -28.53735352	   -324.79577637
      0.80000000	     42.45615387	    122.33757019	     -2.59565449	    206.47944641	     61.72949600	    -25.53528786	      1.38907957	    -15.61684418	      5.36930180	     45.91469193	     -9.55362797	     -2.37523031	      6.75463629	      4.41761637	     -1.55506980	   -113.22489166
      0.81000000	     23.78717041	    130.45191956	     13.74186611	    271.60153198	    -25.64038086	     88.68486786	     -7.69013691	    -19.09977722	     13.79444218	      2.56869292	    -12.03110695	      3.03176618	      8.17487431	    -17.17518616	     26.06743240	    174.99353027
      0.82000000	     25.72813034	    158.71148682	     13.47727776	    276.68041992	    -96.55118561	      4.47254181	    -10.82674408	    -12.95547485	      2.96871996	     27.66844177	     -3.31070089	      5.87318945	      7.65040922	     -3.42747140	     67.12744904	    363.44500732
      0.83000000	    -31.37894821	    203.14588928	     -0.22393131	    229.69621277	    -66.93161774	      6.78938580	     -8.46084213	     -0.74473715	      0.68209839	     63.36442947	     -6.02304649	      9.02325535	      7.97787714	    -12.87062073	     69.85066223	    286.07223511
      0.84000000	    -26.07699585	    235.07646179	      5.80434084	    115.00700378	     23.79414368	     18.88835716	     -5.16810083	     10.17788601	     -7.59939051	     85.13179779	     -7.10860586	     -0.40128958	      0.58027983	    -10.01010895	     50.99507904	    180.22587585
      0.85000000	     10.87111950	    198.10563660	     12.90952015	    -15.93979359	     60.30603027	      0.12271929	     -5.54288530	     18.88965416	     -7.62079144	    102.03527832	      8.31983089	      0.86094898	     -0.58986950	     -2.20571423	     36.58296204	     96.83058929
      0.86000000	     28.69926453	    107.12898254	     -4.13099384	   -103.49539185	    -18.93003845	      8.91377926	     -7.49883366	     17.97498322	    -11.42420483	     64.27687836	     11.36490440	      1.56964505	      5.41416693	     -8.83517075	     21.65922165	   -122.72782898
      0.87000000	     39.16296387	      0.51255620	    -18.46372414	   -127.35847473	    -67.62961578	    -31.64507675	     -6.89087725	     28.25342751	     -6.94112921	     21.87983513	     -6.81014061	     -6.89366722	      8.81269932	    -10.09699821	    -21.97710800	   -351.41705322
      0.88000000	     36.71393967	    -62.70368958	    -13.39888668	   -109.91928101	    -12.20902920	     41.84973907	     -0.17799412	     30.54732895	      6.46159029	      2.25303888	     19.35935974	     -2.85958576	     13.54861355	     -7.13150644	    -82.43301392	   -491.24899292
      0.89000000	     41.45886612	   -102.79441833	     16.08049774	    -85.90388489	    125.69239044	     21.95655632	      4.19248104	     30.91514778	     44.37281418	    -25.56675911	      0.10296810	     -5.42294645	     19.97955513	    -31.90910339	   -126.29010010	   -474.29504395
      0.90000000	     38.22206879	    -56.71209717	     -2.30102873	    -74.65287018	    188.00759888	     54.56776428	     -7.19574451	     27.68420792	     53.81181335	    -33.08345413	     28.24597168	     -9.41357517	      0.27213705	      4.00908041	   -105.93058014	    -47.28777313
      0.91000000	     31.13435555	    -38.51947403	      8.69343090	    -67.65841675	    156.90217590	     52.32085037	     -4.40664482	     23.09110451	     53.45948029	    -12.46953487	    -30.38265800	     -4.25335121	     -6.19439316	      6.51794243	    -55.63090897	    154.38894653
      0.92000000	     14.22311974	    -92.43094635	     25.65573502	    -49.55891418	    115.07400513	    -93.34008026	      6.21569681	     18.85140610	     32.52163696	     16.36328888	     23.52413177	    -14.22236252	     -1.91206861	    -19.32536316	     14.93222713	    235.22923279
      0.93000000	      5.15670967	   -122.99323273	     26.05451202	    -78.16374207	     72.01443481	     -0.57339799	     -0.24659395	     11.67606163	     17.94861412	     57.34405899	    -15.26437569	     -7.43597364	     -1.50654125	     -1.90932155	     69.16580200	    193.20516968
      0.94000000	      2.82768631	   -108.83390808	   -186.84709167	    -74.18656158	     69.04164124	   -176.85206604	     -2.38080215	     37.10934067	      2.09250546	     79.12342834	      0.62471390	     -6.10984325	     20.84873009	      2.42892313	     44.11701965	     94.28695679
      0.95000000	      0.62593555	    -54.83999634	     79.35228729	    -27.53030396	     73.01343536	    100.35228729	     14.61326408	     45.67681503	      3.71597552	     85.87227631	      8.47081184	      1.80115008	      6.83405876	     -0.30598867	    -51.57521057	      5.40657902
      0.96000000	     -1.87832975	      4.12359667	   -379.96276855	     21.26300049	     73.87588501	    -66.70114136	     -5.68146896	     30.24406815	     11.55666828	     27.26563644	    -23.52385330	    -20.15965652	     -8.58888340	      1.30772281	    -74.95249939	   -104.52228546
      0.97000000	     -5.03128004	      7.67337275	    -24.81511497	     47.05510330	    164.66635132	    -47.77190018	     -0.75157893	     12.89140320	      3.99509716	    -16.16840363	      7.35606480	      3.92761230	    -18.81591606	      4.48523760	    -59.40614319	    -95.43744659
      0.98000000	     -3.52478027	      7.80890274	    319.98828125	     22.46166039	    107.25711823	     -7.99367571	     -5.85050011	    -21.75859070	     11.27998257	    -57.66193771	      2.82411361	     16.07999802	    -23.33354759	     -5.83608913	    -20.99170113	    -70.53506470
      0.99000000	    -16.05190659	     18.26969910	    -32.08284378	    -12.81332874	    172.56892395	    -14.34989071	      1.94245243	    -12.82840824	     -0.61679721	    -59.33262634	    -18.02926254	    -26.70934677	     20.99862099	    -19.89136124	     -0.38859624	    -37.49322128
      1.00000000	    -17.20773315	     11.07919121	   -282.92263794	    -30.02101898	     88.60498047	    -72.92530823	     -3.97696900	    -55.11395264	     -6.97751999	    -65.90173340	      6.76943588	    -95.54385376	      3.23462343	      1.61400723	     49.69977570	     -6.44331789
      1.01000000	    -25.31283188	     -6.16114187	    124.13980103	    -42.87428665	     75.51852417	    -40.44012833	      0.17095041	    -18.24531746	    -41.87500763	    -66.40795135	     -0.88763297	      6.24311066	     -5.12519646	     -6.98475933	     51.90993118	    -18.80586052
      1.02000000	    -14.67880917	    -54.26023102	    107.10075378	    -69.60004425	     92.66454315	     18.00463867	     22.35717773	    -23.39739799	    -52.84420395	    -28.44584084	    -33.48171234	      9.96961975	     10.68045425	      4.91800404	     49.43705750	    -15.17940998
      1.03000000	    -15.33949471	    -99.73570251	    244.83476257	    -84.77584076	    158.68176270	     23.16208649	      5.02597284	    -26.81295586	    -56.09725952	    -51.99213409	     -2.72129178	    -12.53997517	      7.89870501	     -2.11628771	     53.14198303	     -8.46527386
      1.04000000	     -6.93753815	   -107.99423218	   -316.21829224	    -99.26284790	     48.66980743	    -38.33068848	     16.90637398	     16.62687874	    -29.86623192	    -55.87907028	     -3.53735161	      3.79044724	      3.84454989	    -11.71234608	     51.56887817	      0.60932207
      1.05000000	    -13.60932350	    -72.34467316	    -28.07398987	    -84.39414978	    -47.63798141	    -12.13405609	    -33.04835510	    -30.88677979	    -19.89586258	    -43.35367203	     11.37845802	     11.45252037	      4.77269363	    -24.25701904	     21.82053947	     17.04545975
